<svg xmlns="http://www.w3.org/2000/svg" xmlns:xlink="http://www.w3.org/1999/xlink" width="100" height="100" viewBox="0 0 100 100"><g><svg viewBox="0 0 99.999997 99.999997"><g transform="translate(-149.6453,-589.21878)"><path d="m 199.64552,591.21879 a 48.000099,48.000099 0 0 0 -48.00022,48.00022 48.000099,48.000099 0 0 0 48.00022,47.99977 48.000099,48.000099 0 0 0 47.99977,-47.99977 48.000099,48.000099 0 0 0 -47.99977,-48.00022 z m 0,5.42088 a 42.107528,42.578935 0 0 1 42.10718,42.57934 42.107528,42.578935 0 0 1 -42.10718,42.57887 42.107528,42.578935 0 0 1 -42.10763,-42.57887 42.107528,42.578935 0 0 1 42.10763,-42.57934 z" fill="#000000"></path></g></svg><g transform="translate(50 50) scale(0.69 0.69) rotate(0) translate(-50 -50)" style="fill:#000000"><svg fill="#000000" xmlns="http://www.w3.org/2000/svg" xmlns:xlink="http://www.w3.org/1999/xlink" version="1.1" x="0px" y="0px" viewBox="0 0 100 100" enable-background="new 0 0 100 100" xml:space="preserve"><path d="M38.75,26.385c-0.741,0.741-1.761,1.196-2.889,1.196h-4.31c-2.259,0.001-4.089-1.829-4.087-4.088  c0-2.256,1.83-4.086,4.086-4.086h4.309c2.26-0.001,4.09,1.83,4.088,4.089C39.946,24.624,39.491,25.645,38.75,26.385z"></path><path d="M77.531,65.169c-0.737,0.74-1.759,1.196-2.889,1.196H48.785c-2.255,0-4.087-1.83-4.085-4.086  c-0.003-2.262,1.825-4.092,4.088-4.089h25.854c2.258,0,4.088,1.83,4.085,4.086C78.73,63.407,78.272,64.428,77.531,65.169z"></path><path d="M64.605,52.242c-0.741,0.738-1.762,1.196-2.893,1.193l-25.854,0.003c-2.257,0-4.088-1.831-4.088-4.088  c0.003-2.257,1.831-4.085,4.088-4.089l25.854,0.003c2.259-0.003,4.089,1.828,4.089,4.085C65.802,50.479,65.346,51.5,64.605,52.242z"></path><path d="M24.611,32.329l-5.041-5.042c1.443-0.754,2.822-1.79,4.093-3.061c5.236-5.234,6.314-12.388,2.413-16.287  c-3.878-3.879-11.031-2.8-16.266,2.434C4.574,15.609,3.497,22.761,7.376,26.64l13.875,13.875l27.535,0.001  c1.119,0,2.154-0.475,2.886-1.208c0.732-0.732,1.208-1.768,1.208-2.886c-0.023-2.262-1.833-4.071-4.094-4.095L24.611,32.329z   M13.235,20.953c-0.193-0.539,0.238-2.694,2.349-4.806c2.155-2.154,4.33-2.563,4.654-2.542c0.214,0.518-0.193,2.694-2.348,4.849  c-2.111,2.111-4.224,2.542-4.612,2.543c-0.043-0.001-0.043-0.001-0.043-0.001V20.953z"></path><path d="M13.235,20.953l0.043,0.043c-0.043-0.001-0.043-0.001-0.043-0.001V20.953z"></path><path d="M90.189,90.753c-5.242,5.246-12.399,6.312-16.285,2.426c-1.595-1.598-1.595-4.184,0-5.782  c1.577-1.574,4.118-1.595,5.719-0.063c0.571,0.17,2.688-0.262,4.785-2.362c2.154-2.154,2.553-4.326,2.348-4.826l-0.862-0.852  l-24.181-0.003c-2.256,0.003-4.086-1.827-4.086-4.086c-0.003-2.261,1.827-4.088,4.089-4.088h27.549l3.351,3.351  C96.501,78.354,95.436,85.51,90.189,90.753z"></path></svg></g></g></svg>